<svg width="889" height="491" viewBox="0 0 889 491" fill="none" xmlns="http://www.w3.org/2000/svg">
<g clip-path="url(#clip0_1_3)">
<path d="M807.695 71.8655L808.171 82.868C809.991 83.0724 812.858 82.0079 814.007 84.1369C814.525 85.1077 820.761 103.945 820.769 105.043C820.871 116.829 806.41 117.323 805.041 123.242C808.656 140.308 803.042 156.3 800.906 172.915C800.056 179.532 804.335 186.762 796.747 193.762C793.438 196.81 757.744 207.966 753.015 207.983C745.869 208.009 745.112 201.426 741.48 200.719C737.363 199.91 727.64 207.081 720.707 206.135C719.142 205.922 693.444 193.694 692.159 192.697C688.127 189.563 687.412 181.805 684.962 180.128C680.777 177.267 663.739 177.522 658.022 173.4C659.188 196.461 650.596 205.275 664.139 225.977C703.166 285.648 795.76 292.256 859.168 294.666C861.49 294.752 866.33 293.219 865.871 296.565C843.958 298.788 819.731 299.716 797.572 298.499C741.293 295.399 680.752 268.037 650.341 220.178C652.297 211.109 645.986 159.281 650.324 156.079C657.563 157.28 654.849 168.129 657.18 169.781C664.589 175.052 706.51 175.87 716.692 175.299C741.403 173.911 756.383 171.893 774.256 153.95C776.952 151.242 796.781 127.031 797.47 125.328C798.21 123.489 796.134 120.525 796.696 119.742C797.597 118.473 814.976 112.393 811.973 102.174L802.378 106.014L806.215 94.4922C782.192 100.794 805.466 82.3315 802.361 79.087L786.003 90.5919L775.438 79.087C778.032 91.9204 779.504 95.8122 774.996 108.484C756.97 159.145 702.631 160.729 659.928 139.72L644.548 131.068C665.95 127.534 682.725 142.786 703.277 144.489C728.712 146.592 753.967 136.978 768.105 115.067C770.581 111.234 777.233 98.5372 775.021 94.8669C774.579 94.126 771.329 93.5725 769.934 91.4009C758.723 73.8753 779.734 61.4506 785.995 81.0031C792.094 75.076 798.295 65.5893 807.703 71.874L807.695 71.8655ZM688.799 181.107C691.011 193.191 704.102 192.314 712.362 195.056C715.509 196.095 716.828 199.961 720.579 200.387C728.831 201.324 737.797 189.546 746.448 193.6C748.115 194.383 749.314 197.304 751.756 198.071C757.166 199.765 790.971 190.236 792.434 185.612C793.701 181.593 792.162 175.81 793.166 170.939C794.059 166.596 798.771 161.921 799.392 158.234C800.285 152.92 797.002 143.126 798.491 136.833C781.588 160.363 764.303 179.251 733.781 182.768L688.807 181.116L688.799 181.107Z" fill="black"/>
<path d="M850.474 335.066C864.323 329.726 890.106 334.299 888.958 353.23C887.852 371.412 860.308 369.572 847.871 368.09C842.461 369.904 846.978 377.023 844.579 381.145C831.3 384.466 829.335 370.304 829.327 360.111C833.095 362.487 833.061 370.194 835.537 374.077C837.068 376.47 837.238 378.173 840.853 377.407C828.876 352.08 878.273 367.358 880.961 353.077C882.237 346.307 870.099 339.843 863.957 340.865C867.411 351.28 862.349 360.349 850.491 358.169L858.164 342.79L842.708 341.819C795.607 392.957 741.829 441.531 669.685 450.737C673.215 467.36 671.607 479.691 652.34 469.915C647.381 479.989 615.388 496.655 608.183 484.043C600.893 471.269 609.935 467.232 618.807 460.351C631.048 472.699 641.63 456.426 656.057 456.383L646.445 465.972L655.122 462.072L664.7 467.905C670.689 463.392 665.865 456.519 665.678 450.584C650.213 451.699 633.668 457.064 618.493 458.256C616.366 458.427 609.552 459.815 609.884 456.383L706.076 436.115C725.003 426.901 744.338 417.133 761.759 405.177C802.82 377.006 832.678 335.926 870.694 304.306C873.714 306.01 870.048 308.649 868.984 310.293C863.293 319.022 855.484 325.962 850.482 335.074L850.474 335.066ZM636.824 471.771C629.423 473.577 623.035 475.714 616.604 469.872C605.375 487.781 630.095 479.086 636.824 471.771Z" fill="black"/>
<path d="M384.691 121.436L397.935 119.708C397.638 132.558 408.636 129.629 411.835 133.725C413.996 136.493 412.958 141.542 413.774 142.36C414.446 143.024 423.906 142.42 425.071 147.444L415.459 152.238C413.715 157.825 422.893 156.505 421.209 160.865C418.096 168.895 410.151 160.269 411.614 167.618L423.166 170.496L415.45 175.308C421.822 177.505 434.462 172.804 439.064 173.775C441.846 174.363 452.105 180.86 457.294 182.563C486.752 192.229 515.521 187.247 543.176 175.052C558.972 168.086 573.535 155.023 590.608 154.171C588.881 159.128 582.995 160.337 580.298 164.237C567.487 182.725 587.767 192.348 594.011 205.607C598.204 214.532 601.956 265.559 602.16 278.299C602.679 309.816 593.994 346.307 592.454 378.318C591.178 404.87 592.241 433.85 594.436 460.207C586.202 450.115 583.343 429.941 582.833 416.98C580.332 353.579 600.544 283.613 592.582 218.586C589.894 196.623 556.369 181.533 582.91 158.012C581.319 156.581 550.815 177.778 546.383 180.17C514.551 197.381 480.959 203.019 446.831 187.247C442.935 185.442 439.609 180.102 435.407 179.642C429.869 179.029 425.564 185.604 418.555 184.965C404.843 183.722 409.164 173.307 401.006 165.702L396.949 173.204C393.478 173.911 388.655 174.031 386.596 170.471C383.985 165.957 391.572 170.13 392.338 166.588L390.415 154.146C396.897 155.696 404.103 149.198 405.795 143.51C407.735 137.021 398.803 143.765 396.88 144.038C388.544 145.238 387.744 136.722 396.191 133.912C391.572 128.743 387.166 129.16 380.82 127.159C376.261 148.551 339.444 161.717 320.118 163.258C301.071 164.782 271.273 152.928 258.462 138.834C257.118 137.361 245.464 120.517 252.754 123.353C260.402 126.333 272.94 141.202 283.565 146.448C314.963 161.938 345.586 153.967 374.968 138.596C375.954 137.276 368.452 122.339 374.049 115.629C378.404 110.408 385.967 114.411 384.657 121.411L384.691 121.436Z" fill="black"/>
<path d="M246.068 19.3992C239.986 15.9503 235.98 20.37 236.481 27.0975C240.879 24.1681 243.533 19.5695 249.76 21.5111C260.793 53.8459 234.695 28.2812 226.197 31.1426C223.262 32.1304 222.412 38.1597 217.291 39.8203C212.17 41.4809 209.158 38.7047 204.786 38.7643C195.505 38.892 192.877 54.0503 186.412 56.9201C177.395 60.9311 174.316 52.1513 172.955 69.4385L179.751 67.9567L182.295 70.6818L185.459 100.24C176.383 95.7611 175.975 80.5943 173.116 76.4471C171.355 73.9008 164.329 75.7402 163.257 68.374C162.415 62.6173 165.154 58.5467 171.015 57.8654C167.63 53.0965 164.822 52.1342 165.078 45.4407C165.12 44.3252 172.13 25.6243 172.785 24.5343C175.864 19.4333 187.705 20.387 192.154 18.4113C196.586 16.4357 207.117 4.69227 210.511 4.02803C223.696 1.47326 244.92 2.8358 246.068 19.3992ZM221.051 11.7093C211.983 9.90398 206.232 16.9722 199.929 22.2861C203.612 27.5489 205.569 21.162 210.451 20.2678C212.085 19.9697 215.002 22.1754 216.848 21.0683L221.059 11.7093H221.051ZM182.542 27.1061C174.903 26.4333 178.076 34.8896 175.804 38.628C173.661 42.1621 162.891 44.0441 171.993 54.0418L177.769 40.5867C179.939 42.2643 174.426 49.2048 179.717 50.1926C185.51 51.2741 183.69 42.1536 188.462 41.4723L182.55 27.1146L182.542 27.1061Z" fill="black"/>
<path d="M182.567 115.663L130.005 150.663C112.55 161.495 77.4349 165.208 61.4426 151.123C57.1553 147.342 56.092 139.694 49.8652 137.625L31.8314 142.266L20.892 136.833L28.5819 150.28C23.2994 150.084 20.0924 144.514 15.1161 149.326L24.72 159.911L9.34016 156.079C7.46872 167.737 23.2824 172.515 32.0441 176.747C34.6641 178.016 37.3436 175.521 36.2633 181.082C24.8901 179.847 10.8033 178.697 3.56422 168.58C-5.47821 155.934 5.4867 154.24 5.58027 152.937C5.80995 149.667 2.34779 146.303 4.37234 142.581C5.67384 140.188 9.51879 139.746 10.6757 138.196C12.2324 136.101 11.7305 132.447 12.9809 130.412C16.1879 125.2 36.6886 127.619 42.0052 131.051C42.4561 117.953 60.2517 116.08 59.4946 130.165C59.1799 136.007 54.0845 136.739 57.4701 139.669C60.2687 142.087 78.4557 150.578 82.3517 151.378C118.913 158.898 149.256 124.187 182.55 115.671L182.567 115.663Z" fill="black"/>
<path d="M174.86 146.456C177.497 183.194 169.399 222.639 172.963 259.036C174.647 276.272 184.132 292.938 186.404 310.055L173.44 281.663C160.612 245.964 165.605 206.706 167.162 169.551L134.412 189.717C111.376 200.719 83.8488 203.036 60.005 192.987C51.6176 189.453 40.6782 182.597 41.0865 173.409C73.8707 196.265 112.329 195.627 147.307 177.59C163.785 169.091 165.222 167.695 170.82 150.97C171.823 147.972 169.127 145.468 174.86 146.465V146.456Z" fill="black"/>
<path d="M255.715 485.218C260.657 484.622 263.294 480.866 268.662 479.895C275.782 478.601 317.098 477.911 317.259 468.867C307.919 460.445 292.446 471.797 282.638 466.943C277.559 464.43 278.402 452.168 276.896 446.726L285.675 463.783C291.621 461.637 320.509 457.439 323.282 461.322C325.587 464.55 325.264 471.448 323.716 475.143C317.872 489.11 267.913 484.494 255.723 491C246.545 447.177 223.611 407.919 204.684 367.818C198.695 389.993 197.419 413.335 191.618 435.579C189.9 442.161 188.317 452.696 182.576 456.349C190.087 428.059 186.735 395.001 196.518 367.332C197.598 364.275 201.69 362.589 201.783 359.2C201.877 355.845 192.988 340.192 191.261 335.032C189.143 328.704 188.896 322.019 186.403 315.845C189.483 312.763 196.824 326.882 197.717 328.577C210.494 352.643 225.236 388.316 235.427 414.059C244.367 436.66 254.005 460.879 255.706 485.209L255.715 485.218Z" fill="black"/>
<path d="M261.474 165.693C258.028 179.608 274.429 185.672 285.53 186.864C299.617 188.371 348.742 180.451 362.897 175.674C367.686 174.065 373.402 170.147 377.945 167.627C381.075 174.056 370.51 181.371 365.049 183.602C349.967 189.768 297.924 196.078 282.595 191.744C279.601 190.892 264.383 181.95 263.422 183.023C264.74 201.92 262.418 218.909 258.998 237.303C256.072 253.041 250.211 279.687 244.707 294.232C243.78 296.676 243.576 299.887 240.335 300.423L255.681 207.038C256.65 195.312 253.477 178.936 257.425 168.367C258.42 165.702 256.795 165.08 261.474 165.685V165.693Z" fill="black"/>
<path d="M714.072 76.8899C714.701 77.52 719.61 77.0261 722.604 78.9166C726.789 81.548 726.406 87.2537 728.558 88.8462C732.233 91.5712 743.428 93.4362 747.588 96.3061C751.977 99.3292 751.73 104.839 752.717 105.622C755.235 107.632 764.065 104.107 761.921 113.713C758.748 114.223 759.701 108.586 757.055 107.939C755.932 107.666 739.736 115.944 734.998 113.704L748.464 105.035C741.369 87.424 729.554 114.837 719.618 117.57L733.033 97.362L721.498 94.4581C724.765 75.1782 704.987 88.8121 702.273 86.7513L705.846 74.6332L694.549 66.5431C694.549 61.3484 703.787 60.3946 701.993 51.6147C701.61 49.7242 685.396 19.3566 683.908 17.5512C677.307 9.56333 669.447 10.1254 662.811 17.4405C659.911 17.3724 662.794 4.64115 645.535 7.91125C643.961 8.2093 634.179 15.2945 636.841 8.84799C639.036 3.5426 649.524 -0.272514 655.096 0.025542C659.698 0.272502 662.607 3.14235 666.75 3.9173C670.893 4.69224 675.231 3.37228 679.671 4.47083C693.648 7.93679 701.38 37.3506 709.087 48.2254C709.393 59.8411 708.304 59.807 712.753 69.6428C713.791 71.9336 713.442 76.2767 714.072 76.8984V76.8899Z" fill="black"/>
<path d="M159.965 461.654C164.142 465.308 193.592 473.84 200.839 475.62C199.095 467.828 189.653 465.836 184.498 461.16C192.265 457.984 211.642 468.211 211.387 476.625C208.963 484.443 203.17 486.401 195.523 484.826C191.763 484.051 159.54 470.57 156.137 468.348C148.039 463.068 149.264 455.037 150.344 446.258L182.542 311.996L166.668 414.476C165.537 423.801 152.565 455.191 159.957 461.654H159.965Z" fill="black"/>
<path d="M629.117 15.5585C630.317 20.5147 627.535 18.9223 625.519 20.5573C608.242 34.6085 597.941 39.0197 593.424 63.571C592.803 66.9263 590.378 77.4689 594.462 79.0614C595.652 57.9761 605.988 41.2424 629.117 42.5112C630.002 46.9821 624.694 48.0551 623.681 51.5721C621.308 59.824 627.875 77.3838 611.806 80.986C610.803 70.2986 612.028 62.0211 615.626 52.1257C604.219 58.6829 600.476 79.4361 600.654 91.5797C600.765 99.1504 604.652 106.534 605.069 113.713C590.455 97.9581 583.326 74.8886 587.214 53.5308C589.877 38.8665 612.045 12.0074 629.109 15.567L629.117 15.5585Z" fill="black"/>
<path d="M654.526 38.2363C655.564 39.701 659.885 40.1183 661.859 40.5952L659.928 48.2595C669.293 43.7716 667.337 49.9797 670.935 52.1853C674.67 54.476 681.892 60.105 683.006 60.7097C686.187 62.4384 690.917 60.1647 690.704 63.6391C684.597 66.0917 682.257 66.0065 677.264 61.7401C677.953 92.0992 662.122 133.265 625.281 129.092C627.28 125.32 634.4 126.129 638.551 124.11C654.509 116.318 665.993 95.5396 667.609 78.065C667.796 76.0127 668.758 72.7767 665.712 73.3047C666.997 81.1563 658.66 74.5991 658.005 75.2122C655.453 84.5371 658.592 100.504 644.522 98.3073L650.4 93.4532C651.387 88.3011 648.376 83.0128 648.555 78.312C648.801 71.7718 654.016 54.97 653.667 51.4359C652.714 41.7789 638.389 43.431 640.78 35.8859L652.187 27.106C653.599 29.8566 653.31 36.5246 654.518 38.2278L654.526 38.2363ZM669.43 69.3874C673.947 60.1817 669.523 56.1366 659.936 55.9748L657.997 67.5139L669.43 69.3874Z" fill="black"/>
<path d="M228.732 279.27C247.081 332.724 269.027 385.454 280.715 440.944L252.856 373.558C244.197 342.168 228.307 313.044 224.896 280.249L228.74 279.27H228.732Z" fill="black"/>
<path d="M586.772 131.025C558.921 137.625 535.554 169.406 506.734 173.23C485.314 176.074 459.701 167.158 441.769 155.747C435.151 151.54 433.816 143.092 427.036 150.288C428.253 124.017 450.846 126.665 438.571 152.187C470.071 164.195 490.274 174.473 523.075 158.77C536.175 152.494 558.998 131.213 569.359 128.079C574.276 126.589 584.441 125.26 586.772 131.025Z" fill="black"/>
<path d="M215.292 136.842C234.618 143.842 232.305 124.894 215.292 127.193L213.344 140.665C206.062 141.721 203.085 135.309 201.673 129.228L192.213 131.085C191.329 139.848 198.313 141.559 205.654 140.691C202.353 147.691 188.547 143.799 185.451 138.732C178.322 127.014 198.466 113.236 206.624 127.168C210.953 118.584 216.559 118.115 225.755 119.631C248.042 123.31 230.229 156.743 215.283 136.842H215.292Z" fill="black"/>
<path d="M213.378 115.637C212.323 109.744 220.566 110.476 224.326 107.334C237.698 96.1698 239.118 70.1453 242.257 54.0673L232.875 51.8787L232.619 44.4359L248.118 45.3726C253.673 50.6865 245.549 86.862 241.381 94.5773C236.235 104.107 224.317 113.942 213.386 115.646L213.378 115.637Z" fill="black"/>
<path d="M219.145 84.8352C224.224 73.6709 216.125 58.4274 225.874 50.2352C230.272 50.1585 232.356 85.9252 219.145 84.8352Z" fill="black"/>
<path d="M648.367 61.7742C645.058 70.9628 627.169 67.7183 629.151 58.9724C630.912 51.1975 644.199 62.6769 648.367 61.7742Z" fill="black"/>
<path d="M215.275 50.2096C220.081 54.0247 198.525 62.8301 196.058 54.987C192.911 44.9553 210.001 51.8787 215.275 50.2096Z" fill="black"/>
</g>
<defs>
<clipPath id="clip0_1_3">
<rect width="889" height="491" fill="white"/>
</clipPath>
</defs>
</svg>
