<?xml version="1.0" encoding="UTF-8"?>
<svg id="Capa_1" data-name="Capa 1" xmlns="http://www.w3.org/2000/svg" viewBox="0 0 800 800">
  <defs>
    <style>
      .cls-1 {
        fill: #1d1d1b;
      }
    </style>
  </defs>
  <path class="cls-1" d="M354.68,453.95c-.46-22.32,6.83-44.18,24.14-71.96l13.66-21.41c10.93-18.22,15.49-30.06,15.03-42.81-.46-15.49-8.2-23.68-20.5-27.33-8.65-.46-17.31-1.37-24.14-2.73l.91-2.73c11.39,1.36,18.22,1.82,25.96,1.82,64.67,0,104.75-51.46,104.75-96.55,0-5.92-.91-11.84-2.28-16.85h-77.43l-181.72,292.85-23.68,12.3h90.18l-1.82,4.1H121.49l1.82-4.1h76.06l61.03-97.92h-12.3c-65.13,0-97.47-39.62-97.47-87.45,0-79.25,92.91-172.61,235.47-172.61,63.76,0,102.93,19.58,118.42,49.19h48.73l-2.28,3.65h-45.09c3.64,8.2,5.46,17.31,5.46,26.87,0,50.56-49.19,88.81-116.59,90.18,14.57,6.83,22.77,21.4,23.23,41.9.91,17.31-4.1,35.53-18.67,59.21l-15.03,23.68c-15.49,24.59-21.41,38.71-21.41,51.01,0,9.11,5.47,15.49,15.94,15.49,22.77,0,43.27-26.87,72.87-70.14l7.74-10.93c1.37-.91,2.28-.91,3.64,0l-7.29,10.93c-25.05,37.35-50.56,73.78-76.97,73.78-17.76,0-23.68-15.94-24.14-31.42ZM248.11,376.98h14.57l117.5-188.56,33.25-18.68h77.88c-11.39-30.06-48.28-45.54-105.67-45.54-142.55,0-230.91,92-230.91,168.97,0,45.55,30.06,83.8,93.37,83.8Z"/>
  <path class="cls-1" d="M377.45,659.39c-20.04,12.3-43.27,18.67-72.87,18.67-46.45,0-68.32-16.39-68.32-32.34,0-12.3,12.75-24.59,41.45-24.59,31.88,0,60.57,15.03,92,29.15,15.94-14.57,30.97-36.89,50.55-67.86-72.42-12.75-104.75-49.19-104.75-93.37,0-58.3,61.48-127.53,196.3-127.53h166.69l-2.28,3.65h-95.19l-86.99,139.37h52.83l11.39-19.58h5.47l-29.6,50.1h-5.47l15.49-26.42h-52.83l-47.37,76.06c-19.58,31.43-38.26,55.11-61.48,71.05,23.68,10.02,49.19,18.22,78.79,18.22,53.74,0,79.7-25.51,104.3-62.4l13.21-19.58c1.82-.91,2.73-.46,3.64.46l-13.66,20.04c-23.68,35.52-48.73,66.95-107.94,66.95-31.88,0-58.75-9.11-83.35-20.04ZM301.4,673.51c27.78,0,46.91-5.92,64.22-19.58-30.06-14.12-57.84-28.69-88.81-28.69-26.87,0-36.44,11.39-36.44,20.95,0,13.21,20.04,27.33,61.03,27.33ZM422.55,578.78l.46-.91,122.97-197.66,26.87-15.03h-61.48c-132.08,0-191.75,68.32-191.75,123.88,0,42.81,32.34,77.88,102.93,89.72Z"/>
</svg>