<svg width="1010" height="497" viewBox="0 0 1010 497" fill="none" xmlns="http://www.w3.org/2000/svg">
<path d="M497.25 459.88C499.23 465.35 501.89 470.7 504.57 475.99C507.23 480.21 509.88 484.44 512.53 488.66C502.7 446.83 480.95 404.01 453.36 374.85C446.12 367.19 426.66 354.26 423.06 349.29C420.33 345.52 420.95 341.57 421.06 337.32L412.5 339.45C416.72 327.68 420.1 315.63 418.91 302.93L410.35 307.22L414.65 275.02L419 280.23L427.51 317.97C428.66 302.38 421.36 287.38 423.19 271.73C424.59 259.78 447.69 222.44 412.5 246.02L416.34 247.38L414.66 255.67L418.91 251.4C422.46 259.49 415.04 262.5 414.73 263.67C413.57 267.99 414.92 274.44 412.45 279.32L408.21 277.16C408.68 295.67 406.01 309.81 398.4 326.56C397.61 328.3 397.97 332.65 394.25 330.87C383.29 325.64 395.25 304.99 393.14 302.97C385.14 300.78 387.1 307.64 382.43 309.39C382.1 301.48 383.56 293.33 385.6 285.74C386.35 282.96 387.64 275.43 390.98 275.03C390.37 282.18 393.48 290.96 387.79 296.53C385.65 301.36 390.57 298.65 392.02 296.45C399.85 284.57 395.25 275.14 398.36 264.05C399.56 259.77 403.82 260.22 403.83 258.69C403.83 256.63 401.47 254.86 402.77 251.5C405.97 243.26 412.92 239.84 418.93 234.22C411.26 236.53 408.8 236.92 401.74 232.97L363.09 264.27L360.9 242.78L356.64 244.96V232.07L363.07 236.34C357.16 224.88 365.96 233.67 369.51 227.79C351.19 224.88 327.48 209.32 311.51 225.6C325.26 223.44 338.58 221.9 352.25 225.71L348.05 257.87L352.31 255.69C357.18 276.64 346.75 286.69 341.56 305.11C338.71 305.33 337.44 294.45 337.52 293.18C337.71 290 341.32 287.43 341.72 282.68C342.31 275.78 343.72 236.48 336.22 236.41C321.58 246.35 328.13 261.61 326.52 276.09C324.26 296.53 318.92 316.72 317.98 337.34L324.38 326.62C323.94 332.27 324.78 337.69 326.26 343.12C327.26 346.8 324.71 349.11 330.85 348.07C321.36 326.86 329.6 305.58 330.94 284.79C331.87 270.33 324.76 252.01 337.28 242.81C338.44 257.88 333.73 273.6 333.53 288.43C333.28 306.97 340.02 325.16 339.47 343.8L343.71 341.61C352.68 372.73 382.11 390.13 388.61 422.46C392.24 440.53 390.91 456.57 384.68 473.88C381.75 482.02 376.51 488.4 373.85 496.32C394.13 475.33 399.53 440.7 391.7 412.92C378.99 367.88 325.87 348.35 352.61 291.4C359.93 275.81 375.14 258.53 391.02 251.41L383.38 262.01L369.55 294.35L380.26 290.07C373.63 310.19 383.1 326.29 397 339.36C399.47 341.68 403.89 342.69 406.08 344.97C407.95 346.91 406.45 350.52 408.04 351.4C412.33 353.76 418.24 348.01 428.95 357.41C455.68 380.85 485.15 426.47 497.26 459.9L497.25 459.88ZM410.34 323.32C410.59 329.39 410.18 335.54 410.33 341.59C387.05 334.9 408.82 328.72 408.21 315.83C411.96 315.33 410.23 320.71 410.34 323.32Z" fill="black"/>
<path d="M427.55 113.88C438.86 112.53 451.26 106.34 462.75 107.56C476.81 109.05 492.48 123.01 506.08 126.64C515.83 129.24 530.47 130.63 541.06 132.04C548.11 132.97 556.6 126.93 558.63 139.66L565.02 135.36L557.26 177.31C557.98 182.59 565.83 183.5 567.18 184.77L566.03 180.48C575.64 174.13 568.11 172.16 567.06 164.48C565.93 156.2 569.38 149.47 569.33 142.88C569.29 136.21 565.3 127.96 567.16 120.33L561.82 128.9C559.04 126.99 558.72 124.51 558.46 121.42C556.92 103.73 572.15 72.62 574.7 53.71C579.87 49.05 577.44 52.74 577.08 56.09C574.86 77.29 573.12 95.28 567.2 116.01L579.48 86.43L582.24 36.53C586.17 37.35 586.21 40.75 586.59 43.96C588.26 58.25 583.74 77.37 584.28 93.55C584.71 106.45 587.18 123.1 588.84 136.24C589.78 143.69 594.77 148.56 590.99 158.78L599.4 161.12L592.97 154.72C597.72 152.56 623.94 171.44 632.58 174.16C643.72 177.66 655.75 177.09 666.91 180.49L672.61 163.4C673.94 163.15 675.4 163.1 676.75 163.29C676.53 158.09 674.91 156.64 670.32 158.99L672.47 122.48L681.07 164.33C680.75 167.1 678.12 163.47 676.74 163.29C676.91 167.35 674.7 171.2 674.53 175.22C674.2 182.95 677.36 189.68 672.62 197.43L678.95 200.87L683.19 198.7L680.94 181.9C686.73 176.84 688.88 177.97 689.74 185.73C690.28 190.6 686.45 201.6 693.92 199.81C694.16 192.3 696.38 170.54 703.63 167.59L708.95 171.86C710.77 167.17 707.11 160.95 707.13 157.79C707.13 156.83 719.2 147.93 708.99 141.81L702.53 154.67C704.66 134.59 716.76 132.68 715.5 155.85C714.84 168.04 712 178.14 715.39 191.2L711.09 180.48L706.84 189.05L704.69 178.33C706.14 193.91 696.15 212.71 717.55 216.98C719.19 212.46 713.2 208.63 713.64 205.59C713.94 203.52 717.59 200.43 718.3 197.3C719.82 190.6 718.32 179.76 723.98 176.18C723.87 188.73 728.45 203.37 726.11 215.87C725.05 221.51 719.31 222.17 719.73 227.73L741.18 229.87C738.96 218.62 728.42 206.59 730.45 194.6C731.01 191.3 734.57 188.76 734.68 185.85C734.83 181.58 726.99 170.8 730.44 163.29L719.71 169.7C735.32 135.44 733.3 183.15 743.31 194.47L739.06 195.48C738.81 198.73 737.99 208.97 743.5 207.54L748.73 204.14L753.01 214.79C760.2 209.77 745.31 198.92 751.95 193.36C756.97 189.16 759.3 204.21 762.66 204.08C759.61 182.9 772.66 184.64 785.25 176.2C790.71 180.83 791.18 187.66 790.67 194.39C789.92 204.37 779.41 225.15 779.88 232.92C780.33 240.27 790.58 248.78 788.49 257.79L797.08 199.8L801.33 208.37C805.59 197.54 815.83 179.35 794.93 186.9C795.92 173.49 814.33 177.37 816.01 188.44C817.94 201.16 788.43 230.02 826.2 230.99C833.1 231.17 833.15 230.91 841.28 231.84C863.88 234.43 886.37 236.82 908.77 240.64C909.3 244.33 903.68 242.92 901.3 242.75C883.92 241.46 866.07 237.68 848.63 236.34C856.1 248.09 843.66 254.14 842.7 259.14C840.87 268.6 855.37 296.97 847.18 310.59L865.8 323.35C861.32 325.13 855.13 321.09 849.47 320.35C839.12 319 827.53 323.83 822.34 310.97C815.4 293.8 829.49 287.67 829.51 275.96C820.51 268.13 831.8 255.86 824.99 244.04L831.44 236.35L816.41 234.18C820.69 247.55 811.64 257.85 810.08 267.61C805.12 298.73 822.28 320.48 820.67 350.19L814.22 322.28L805.67 335.16L804.57 320.1C804.48 329.58 798.4 340.49 805.64 348.03L799.22 350.2C799.82 340.95 798.04 330.67 799.69 321.59C800.89 314.97 807.44 316.04 807.44 308.42L805.62 270.71L799.21 274.98C801.16 266.15 797.32 255.66 797.26 247.9C797.19 238.76 799.67 228.75 799.2 218.03C799.08 215.42 800.83 210.05 797.07 210.54C793.48 248.42 794.58 286.48 797.03 324.39C793.52 323.98 793.09 315.32 792.77 312.57C790.84 296 790.62 278.79 790.59 262.11C787.54 261.64 787.23 268.07 786.93 270.22C784.02 291.2 793.43 308.37 792.98 325.55C792.81 332 787.89 336.37 788.75 339.98C789.73 344.07 797.52 350.46 797.14 356.63L805.64 354.5C796 373.38 787.8 340.52 782.66 337.1C776.79 333.19 754.99 343.79 756.25 326.55C764.26 335.05 770.39 333.68 780.91 330.82L779.84 335.12L790.37 329.44C790.17 321.24 785.78 313.82 784.33 305.97C780.67 286.17 781.6 281.72 784 262.99C785.49 251.34 781.2 246.51 777.69 236.33C773.81 237.44 773.55 246.94 773.33 250.2C772.65 260.49 772.2 279.14 773.35 289.02C774.66 300.3 785.02 316.96 771.29 326.55C774.51 319.64 769.41 316.02 769.01 310.56C768.29 300.85 769.53 290.25 769.12 280.33C769.01 277.72 770.74 272.34 766.99 272.84C767.23 285.64 764.37 302.06 759.93 314.13C759.27 315.92 753.74 330.51 749.78 326.52C752.99 319.91 756.22 312.83 757.86 305.62C760.72 293.05 761.96 261.85 765.14 252.67C766.13 249.8 770.42 250.27 771.27 247.63C773.48 240.73 772.44 227.89 774.88 219.5C778.59 206.73 791.49 200.18 786.3 182.6C777.2 180.64 787.99 190.83 780.93 193.32L778.8 189.04C769.43 196.1 774.35 231.15 765.89 234.14C764.24 227.01 761.05 232.04 758.36 230.75C753.83 228.58 748.35 221.43 743.36 219.11L743.46 229.74L756.23 232.02C750.49 241.39 724.81 236.06 716.06 232.42C713.02 231.16 693.22 220.16 703.47 219.2L717.56 225.52C715.05 214.94 702.14 217.18 693.2 217.05L689.44 208.5C678.29 210.68 670.07 207.74 660.59 201.95L648.82 189.04C655.93 186.12 659.74 187.02 665.97 191.15L668.13 182.57C658.38 181.49 644.51 181.94 635.34 179.91C623.86 177.37 613.01 165.81 604.72 163.25C597.26 160.95 605.09 170.11 605.34 171.23C607 178.48 606.08 185.7 610.11 193.3C599.57 178.15 578.09 188.6 567.16 184.71C574.99 192.04 582.23 202.36 590.78 209.43C584.24 213.42 560.34 189.05 558.58 191.16C558.99 196.09 564.18 206.04 568.07 208.5C574.19 212.37 587.81 208.41 590.43 216.22C593.42 225.15 587.23 256.22 588.67 257.72C616.71 259.5 628.43 278.83 658.28 274.77C670.38 273.12 682.39 264.33 696.63 269.02L730.43 285.67C715.7 283.64 703.62 271.38 688.48 270.55C674.43 269.78 657.73 282.17 643.92 280.91C627.4 279.41 609.96 263.76 591.89 261.93C578.07 260.53 566.69 259.21 549.55 262.7C542.65 264.1 537.22 266.72 530.64 268.48C543.97 256.09 566.85 255.31 584.35 255.6L581.91 219.4C579.13 214.97 551.06 217.89 544.54 216.53C542.79 216.17 544.87 210.6 539.26 212.64L535.67 223.48C522.43 225.36 505.05 219.44 494.19 225.49L489.83 221.26C491.45 232.12 490.96 250.53 487.97 261.38C486.96 265.04 489.53 267.37 483.39 266.34C484.71 252.56 478.6 233.55 487.67 222.29C482.28 220.98 484.25 218.47 483.38 216.93C484.66 216.83 486.54 221.32 489.78 215.86C485.17 214.7 479.17 189 472.64 195.46C469.74 198.32 481.4 213.45 483.37 216.93C476.52 217.45 481.27 221.41 476.03 221.09C467.97 214.75 456.3 210.94 453.25 199.76H449.04C444.65 209.88 429.92 217.39 418.91 219.1C417.93 224.68 419.68 222.42 421.96 223.57C428.39 226.82 442.42 230.16 441.48 240.55C436.04 234.27 428.88 229 420.66 226.99C412.44 224.98 400.55 227.02 395.27 224.45C391.21 222.47 388.84 213.65 385.51 210.59C378.66 204.31 373.66 208.8 366.98 207.81C350.97 205.42 336.91 199.39 320.07 201.86L322.23 197.58L317.85 196.36C321.69 187.57 319.39 178.11 320.34 168.83C320.57 166.64 321.2 158.73 324.36 158.91L322.23 197.57C337.6 190.77 348.96 200.44 362.48 203.52C368.35 204.86 374.65 203.39 380.83 204.52C395.81 207.26 393.09 228.99 416.23 220.6L448.3 193.58L470.47 206.16C471.73 204.9 468.05 197.7 466.13 196.55C462.13 194.15 452.98 196.6 451.15 191.15C463.12 190.25 477.22 184.75 487.64 193.28L485.52 161.04L425.35 163.2V194.35C425.35 195.05 422.29 205.9 421.64 207.93C420.48 211.55 422.56 213.6 416.76 212.59C425.21 197.39 402.28 150.53 431.78 156.75L423.23 130.98L429.63 139.55C428.26 132.91 433.28 131.72 438.22 128.82C437.47 134.02 442.14 138.54 442.55 142.98C442.96 147.4 438.11 155.52 443.73 156.63C445.43 156.97 450.62 154.2 454.36 154.41C462.41 154.86 470.47 158.34 479.07 156.73C471.06 148.55 457.06 145 457.6 130.95L461.9 126.67L470.45 135.26L469.39 124.53C476.42 132.67 491.5 137.61 495.18 148.3C497.62 155.38 492.23 164.05 494.11 171.79H533.86L545.67 178.22L519.96 180.5L526.32 210.45L515.39 180.6L504.86 180.41L513.43 210.46L502.73 197.59L504.86 206.15L498.44 201.88L496.29 212.6L489.85 191.15L483.55 198.59L493.42 217C504.27 213.25 521.97 217.06 531.32 214.72C532.86 214.33 532.79 211.32 533.39 210.98C535.28 209.9 539.35 213.91 541.37 209.31L537.11 182.54L540.3 186.82C544.43 180.78 546.87 184.11 552.11 186.82C553.36 182.62 547.55 181.06 548.17 177.58C549.15 172.04 551.04 165.24 552.29 157.98C553.2 152.71 559.19 143.89 554.29 140.63C552.46 139.41 548.57 139.63 545.88 138.29C527.03 128.9 513.89 133.31 495.33 126.53C484.23 122.47 473.15 111.95 460.76 111.53C454.48 111.32 438.55 114.82 430.77 115.97C427.02 116.53 427.16 114.82 427.52 120.2L453.31 122.37C448.32 133.14 459.6 140.52 461.89 150.28L455.42 141.7L451.14 148.13C444.71 143.75 440.19 134 444.71 126.67L387.66 127.48L373.83 141.69L382.03 124.78L378 123.3L427.54 113.77L427.55 113.88ZM582.2 158.99C580.97 152.12 586.35 146.96 586.67 140.72C587.3 128.26 578.23 109.15 582.2 94.54C575.95 102.16 571.65 116 571.39 125.63C571.33 128.05 570.01 133.77 573.6 133.2L575.75 122.48C575.72 134.51 572.9 149.1 582.2 158.99ZM479.97 143.04C478.18 141.17 477.54 137.85 474.81 137.5C474.61 145.8 481.21 153.09 486.61 158.94C494.15 154.05 483.27 146.48 479.97 143.04ZM809.93 259.96C813.3 257.24 811.12 231.36 803.53 229.89C804.89 241.52 795.99 253.62 809.93 259.96ZM835.76 300.78C834.75 294.13 838.99 283.01 831.46 279.31C829.97 287.71 824.66 322.23 840.03 308.39C846.07 302.95 845.67 297.46 844.31 290.06L842.16 300.78L838.96 296.47L835.76 300.78Z" fill="black"/>
<path d="M951.74 227.75L947.48 225.57L949.63 253.5C954.32 253.52 950.53 244.86 951.78 242.76C952.07 242.27 959.29 243.73 962.48 240.63C962.88 257.7 972.34 261.17 986.17 267.45L1009.76 274.98C993.05 276.6 977.94 268.94 964.67 259.96C959.52 267.12 972.66 305.05 973.13 315.04C973.42 321.22 970.68 326.81 971.05 334C971.52 343.25 977.06 351.67 977.52 360.92L968.97 343.75L964.67 365.21C961.78 342.59 965.11 320.94 960.33 298.63L957.13 326.57C954.24 326.54 956.37 311.37 955.57 309.92C955.21 309.26 952.42 309.1 951.76 307.88C949.42 303.56 951.62 297.09 945.33 298.63C941.3 323.82 944.42 360.53 923.86 378.11C927.72 369.46 931.53 362.21 933.99 352.81C937.57 339.15 944 306.16 944.78 292.69C945.08 287.52 942.37 282.44 943.16 277.14L938.89 284.38C936.22 289.33 931.49 280.98 930.76 277.75C929.7 273.03 932.39 264.07 928.17 262.12C926.03 274.82 924.59 287.44 916.97 298.16C906.25 304.4 854.55 283.4 848.65 268.57L883.71 288.27L913.09 296.48C913.03 287.59 917.34 279.72 918.99 271.21C920.96 261.08 921.09 237.9 924.88 229.83C925.28 228.98 926.93 227.54 928.12 227.72C929.78 229.99 925.19 243.68 930.27 244.89C939.55 232.83 946.69 220.18 942.12 204.1L930.31 227.71C925.22 216.26 937.28 205.72 938.54 200.44C939.8 195.16 933.05 183.82 946.39 180.39C961.35 180.39 949.33 219.05 951.75 227.74L951.74 227.75ZM938.84 272.86C941.64 261.59 941.16 250.05 940.99 238.49C937.86 238.1 937.12 244.13 936.91 246.19C936.04 254.68 936.72 261.04 935.04 270.15C934.27 274.3 935.2 272.75 938.84 272.86ZM958.19 283.61C958.05 275.36 959.95 263.14 951.78 257.82L947.47 283.59L958.19 283.61Z" fill="black"/>
<path d="M98.81 360.94C95.16 360.92 94.7 353.8 94.5 351.28C93.6 340.1 93.47 321.48 94.44 310.37C95.32 300.31 100.04 294.36 101.06 286.91C102.56 275.94 99.93 263.35 99.94 252.39C99.94 244.48 105.67 237.18 99.92 227.69C97.15 223.11 89.72 235.59 90.16 226.62C90.51 219.46 95.32 216.46 101.9 214.89C104.94 215.58 109.52 231.82 109.65 235.3C110.01 245.05 104.02 251.12 103.02 258.77C102.39 263.61 104.09 292.2 105.33 297.14C105.75 298.83 109.15 298.53 109.51 300.1C111.15 307.18 108.3 318.45 111.72 326.56C117.74 324.88 113.61 318.23 113.72 312.72C113.82 307.34 115.31 299.46 114.97 295.34C114.22 286.19 104.42 267.13 105.2 258.83C105.46 256.04 106.44 255.21 108.48 253.56C112.5 253.58 121.61 287.95 122.22 293.49C124.25 312.13 115.75 328.91 122.47 348.04C126.07 348.6 124.69 342.94 124.66 340.49C124.58 334.32 122.55 328.52 122.67 323.59C123.16 303.72 139.3 286.41 133.21 266.43C137.78 269.71 133.68 272.85 141.76 268.57C143.39 289.02 137.58 308.52 141.8 328.72L148.21 322.3C147.68 336.05 152.23 347.79 148.04 361.44L141.8 369.54C136.47 355.14 139.27 339.37 137.48 325.47C137.1 322.51 135.89 318.75 133.19 322.29L135.31 356.65C131.47 356.07 134.49 348.64 128.26 354.47C118.59 363.5 130.47 366.9 132.99 370.83C136.17 375.78 133.82 382.66 138.57 386.73L139.64 380.27L152.32 382.26C158.29 372.71 149.76 368.24 150.39 358.82L158.45 368.99C169.45 385.63 141.59 395.86 132.28 386.61C125.24 379.63 125.36 368.65 109.56 371.69C108 365.15 114.77 368.33 118.4 364.33C123.59 358.61 110.65 344.97 111.68 337.32C104.98 329.99 109.68 359.78 103.13 358.8C101 342.73 101.64 326.6 100.96 310.45C100.85 307.81 102.6 302.47 98.81 302.95V360.96V360.94Z" fill="black"/>
<path d="M369.53 124.6L365.23 116.03C370.71 129.05 358.56 132.9 351.24 141.79L351.26 133.22L337.29 148.22C340.15 148.65 342.75 149.62 345.68 149.71C362.88 150.26 358.34 130.2 375.94 126.76C375.03 138.8 361.98 137.64 358.77 148.22C364.95 147.59 372.91 149.52 378.73 147.8C383.85 146.28 385.33 139.1 390.57 136.01C403.22 128.53 417.29 128.42 422.35 143.91C427.7 160.29 396.18 154.17 387.67 154.61C366.12 155.72 343.82 159.84 322.24 154.67L344.78 128.89C348.18 125.25 354.2 125.73 357.63 122.42C363.22 117.03 359.47 105.53 372.41 109.89C378.46 111.93 377.64 125.62 369.52 124.6H369.53Z" fill="black"/>
<path d="M285.75 143.96L290.01 141.78L296.49 169.72L306.17 163.3C317.22 158.95 298.04 179.47 297.59 180.51C293.52 189.83 293.56 194.55 287.62 204.91C286.13 207.5 287.06 211.64 281.43 210.52C284.5 206.24 282.61 201.04 283.67 197.03C286.2 187.41 287.28 186.87 287.89 172.97C288.14 167.31 294.25 152.6 283.59 152.54C283.37 159.31 283.86 166.17 283.58 172.96C283.47 175.57 285.2 180.95 281.45 180.45C281.23 174.39 281.68 168.25 281.43 162.18C281.32 159.57 283.05 154.19 279.3 154.69C279.64 178.19 274.77 201.01 268.54 223.42L300.74 218.05C295.78 230.29 286.42 226.08 276.97 228.65C261.93 232.74 254.66 250.42 240.63 254.81C233.18 257.14 224.26 243.05 218.03 255.67C216.41 258.95 218.69 264.51 214.84 264.24C210.71 251.45 223.3 250.03 226.52 244.8C230.74 237.94 232.43 222.65 236.32 244.93C241.7 250.46 266.49 227.41 267.78 219.18C268.54 214.34 264.77 212.91 264.74 211.58C264.71 209.64 269.88 207.55 270.1 205.2C270.3 203.18 263.66 192.61 264.14 183.76C264.54 176.51 268.94 171.74 270.1 165.92C274.47 143.87 274.69 118.91 272.84 96.68C274.35 94.71 277.07 95.25 276.83 99.69C276.21 111.42 275.32 129.44 280.36 139.63C280.8 124.23 285.46 109.41 283.59 94.53C286 95.13 289.23 105.13 289.5 106.84C291.95 122.66 285.01 129.32 285.74 143.94L285.75 143.96Z" fill="black"/>
<path d="M128.28 84.44C130.33 86.11 132.85 93.73 136.39 94.01C139.74 94.27 144.22 87.41 147.62 86.37C156.46 83.65 158.59 89.02 164.47 90.11C169.95 91.13 188.77 90.51 191.03 97.94C194.76 110.19 175.1 102.88 171.22 103.49C167.76 104.04 164.94 107.97 161.56 108.94C136.55 116.08 100.03 119.9 74.13 118.14C63.64 117.43 12.44 110.7 34.45 91.38C49.87 77.84 70.88 95.13 86.94 94.62C101.04 94.18 115.89 74.36 128.29 84.44H128.28ZM156.81 88.1C148.14 85.19 143.37 96.86 136.35 96.65C116.64 80.11 120.05 86.95 103.22 95.73C78.54 108.6 65.27 88.26 44.08 92.46C30.36 95.18 38.12 112.17 49.41 107.45L47.23 111.72C69.62 115.01 94.49 114.2 117.05 111.72C127.84 110.53 152.13 107.42 161.68 104.8C168.53 102.92 171.23 95.75 182.6 100.99C176.03 92.8 159.7 97.07 150.37 96.69L156.8 88.13L156.81 88.1Z" fill="black"/>
<path d="M199.78 229.9C193.61 249.16 192.09 263.78 197.62 283.59L191.22 272.87L182.8 312.35L195.47 365.23C195.99 359.97 194.77 354.14 195.39 349C197.21 333.79 196.18 322.05 195.38 306.3C195.09 300.65 189.74 294.46 191.22 287.89L197.62 294.32C207.28 281.22 189.1 261.68 201.92 249.22C200.07 268.27 203.95 284.28 210.57 301.82L201.96 290.05C201.47 299.2 200.69 319.85 212.68 313.69C206.64 322.32 214.5 328.44 215.01 336.25C215.93 350.45 213.6 344.06 218.17 358.67C223.45 375.54 212.35 387.87 195.51 382.39C197.53 377.85 205.48 381.64 210.54 379.2C225.19 372.14 209.71 356.8 208.76 350.83C208 346.03 212.22 338.72 210.51 333.01L206.26 341.58L203.02 324.42C198.75 327.3 200.63 328.93 201.16 332.53C203.02 345.25 209.78 355.52 204.06 369.51L199.81 354.5C197.09 363.71 194.73 379.2 186.92 384.56C198.76 360.22 179.75 336.4 180.38 312.68C180.59 304.57 185.51 291.63 186.62 282.23C187.93 271.14 185.25 260.13 189.03 249.21C177.92 256.99 172.18 262.15 157.93 262.15C155.43 262.15 149.85 263.61 150.39 259.97C154.78 259.78 159.58 260.63 163.86 259.46C169.71 257.87 202.64 238.39 195.52 232.02L189.06 229.88H199.78V229.9Z" fill="black"/>
<path d="M723.5 4.82001C730.73 30.67 703.32 17.3 693.64 18.32C686.58 19.06 678.34 26.84 671.08 27.26C663.27 27.71 654.06 20.99 645.63 21.34C637.2 21.69 631.83 30.17 626.22 30.05C619.4 29.9 617.18 18.08 610.21 15.89C602.12 13.35 588.5 25.58 580.08 16.11C582.18 13.44 586.23 17.32 589.49 17.08C597.28 16.5 610.99 8.48001 618.22 15.58C620.79 18.1 620.11 25.9 626.2 25.86C633.06 23.94 638.54 15.81 645.78 15.05C654.77 14.11 661.61 21.4 669.3 21.67C678.28 21.99 682.56 14.09 690.91 12.98C701.72 11.54 716.82 22.78 719.72 8.62001C713.73 6.77001 707.39 5.89001 701.33 4.35001C697.75 3.44001 695.04 6.53001 696.12 0.0100098L723.51 4.83001L723.5 4.82001Z" fill="black"/>
<path d="M949.61 148.27C954.11 151.5 986.95 141.52 983.98 137.53C961.61 129.04 938.37 148.12 917.49 134.18C910.84 129.74 907.81 119.24 898.94 118.19C890.48 117.19 881.09 124.43 872.83 126.28C870.69 126.76 865.27 128.43 865.83 124.64C876.56 123.99 886.1 114.07 897.01 114.23C908.89 114.4 917.41 130.45 927.5 132.76C945.43 136.87 961.71 126.07 978.13 129.41C1013.13 136.54 961.61 163.7 949.61 148.26V148.27Z" fill="black"/>
<path d="M945.3 152.56L937.82 154.7C916.32 152.9 889.82 161.61 868.99 159.03C855.52 157.37 845.14 142.77 829.86 140.16C818.82 138.27 807.95 140.75 797.08 140.73C811.27 130.13 832.03 132.18 847.02 140.19C854.78 144.34 860.72 153.01 871.35 154.57C879.52 155.77 885.34 152.59 892.6 152.45C910.15 152.1 927.79 152.87 945.32 152.56H945.3Z" fill="black"/>
<path d="M85.94 298.64L88.06 285.76C78.42 285.1 68.56 286.99 59.63 290.61C40.82 298.23 22.23 323.04 0 315.8L20.11 309.1C43.03 295.93 61.25 279.06 90.11 283.48C91.77 268.56 95.79 253.38 92.39 238.49C95.53 238.1 96.25 244.12 96.47 246.19C98.14 261.61 97.45 287.19 85.95 298.64H85.94Z" fill="black"/>
<path d="M238.46 182.62C244.84 174.16 242.05 203.1 242.77 204.12L247.03 201.94L244.92 217C253.75 210.32 252.33 192.1 250.38 182.41C248.97 175.44 245.77 176.7 244.31 173.47C242.36 169.17 235.62 149.18 244.89 150.39C243.82 174.83 272.61 205.15 242.71 222.39L238.45 220.22V182.62H238.46Z" fill="black"/>
<path d="M163.27 365.22C157.68 366.27 159.47 364.21 157.99 360.95C154.79 353.9 153.45 342.07 152.56 334.06C151.92 328.3 147.78 296.69 155.76 296.53C159.66 299.1 158.81 302.2 159.08 306.06C160.46 325.41 159.6 346.43 163.28 365.22H163.27Z" fill="black"/>
<path d="M831.44 124.59C812.54 120.89 794.15 122.44 779.91 136.43L786.42 142.78L801.35 148.23C739.16 144.68 810.63 98.49 831.44 124.6V124.59Z" fill="black"/>
<path d="M343.73 122.48C345.25 129.05 339.51 125.65 336.25 128.88C333.86 131.24 333.44 136.57 329.87 139.74C325.95 143.22 320.32 142.89 318.48 144.46C313.73 148.52 318.09 163.09 305.08 158.98C303.26 157.3 310.59 140.84 313.46 138.38C318.14 134.37 324.33 135.52 327.34 133.41C330.19 131.41 331.1 118.81 343.73 122.48Z" fill="black"/>
<path d="M515.53 264.37C516.03 265.12 515.93 269.09 515.05 270.34L511.29 271.78L515.6 274.98C507.82 273.35 498.15 276.75 491.22 276.39C481.37 275.88 474.08 267.79 464.03 268.54C460.51 265.76 464.38 264.61 467.26 264.22C479.51 262.57 492.03 275.64 507.03 270.72V262.11C507.55 261.54 515.29 264 515.53 264.36V264.37Z" fill="black"/>
<path d="M234.17 209.48C233.87 212.77 230.02 218.36 232 223.43H229.87V157.91C229.87 156.79 233.28 142.23 236.29 141.81C238.67 147.57 234.16 156.68 234.16 160.06C234.16 175.69 235.54 194.34 234.16 209.47L234.17 209.48Z" fill="black"/>
<path d="M152.5 287.88L137.91 249.82C137.31 244.89 142.77 238.73 135.36 236.33L131.06 247.06C129.94 242.9 131.82 232.95 136.48 232.06C144.61 230.51 145.34 255.41 146.67 260.45C149.19 270.09 156.94 277.17 152.51 287.88H152.5Z" fill="black"/>
<path d="M489.83 23.66C484.1 30.72 481.08 38.18 484.44 47.31C491.17 54.74 504.25 56.41 510.13 47.16C512.74 43.05 511.53 35.89 515.59 34.39C518.32 52.78 497.8 65.93 483.5 52.53C475.82 45.33 476.5 25.04 489.83 23.66Z" fill="black"/>
<path d="M960.35 386.71C952.51 388.11 956.56 374.24 950.67 371.7L947.48 378.12C950.17 365.25 944.4 348.66 950.69 337.32L960.35 386.7V386.71Z" fill="black"/>
<path d="M85.92 309.38L88.08 316.87C90.04 327.89 87.89 350.03 90.66 359.42C92.68 366.27 97.81 364.72 103.11 363.11C101.04 372.89 85.93 366.34 85.93 362.02V309.38H85.92Z" fill="black"/>
<path d="M979.68 378.14C981.89 397.61 977.69 416.08 953.87 409.32C948.19 403.35 960.02 408.84 964.7 407.36C972.19 404.99 976.33 396.78 977.03 389.4C977.49 384.49 971.7 376.58 979.68 378.15V378.14Z" fill="black"/>
<path d="M685.35 171.88L676.7 121.42L676.78 116.02C678.74 113.31 685.35 139.08 685.35 140.73V171.88Z" fill="black"/>
</svg>
